<mxfile host="app.diagrams.net" modified="2021-11-15T23:22:43.687Z" agent="5.0 (Windows NT 10.0; Win64; x64) AppleWebKit/537.36 (KHTML, like Gecko) Chrome/96.0.4664.45 Safari/537.36" etag="F4iCXOfk5UnYzLREacGm" version="15.7.4" type="github">
  <diagram name="Page-1" id="5f0bae14-7c28-e335-631c-24af17079c00">
    <mxGraphModel dx="1584" dy="864" grid="1" gridSize="10" guides="1" tooltips="1" connect="1" arrows="1" fold="1" page="1" pageScale="1" pageWidth="1100" pageHeight="850" background="none" math="0" shadow="0">
      <root>
        <mxCell id="0" />
        <mxCell id="1" parent="0" />
        <mxCell id="39150e848f15840c-1" value="PaaS" style="verticalAlign=top;align=left;spacingTop=8;spacingLeft=2;spacingRight=12;shape=cube;size=10;direction=south;fontStyle=4;html=1;rounded=0;shadow=0;comic=0;labelBackgroundColor=none;strokeWidth=1;fontFamily=Verdana;fontSize=12" parent="1" vertex="1">
          <mxGeometry x="85" y="124" width="330" height="220" as="geometry" />
        </mxCell>
        <mxCell id="39150e848f15840c-2" value="&lt;span style=&quot;text-align: center&quot;&gt;«Device»&lt;br&gt;&lt;/span&gt;&lt;b style=&quot;text-align: center&quot;&gt;PC / Mobile&lt;/b&gt;&lt;span style=&quot;text-align: center&quot;&gt;&lt;br&gt;&lt;/span&gt;" style="verticalAlign=top;align=left;spacingTop=8;spacingLeft=2;spacingRight=12;shape=cube;size=10;direction=south;fontStyle=4;html=1;rounded=0;shadow=0;comic=0;labelBackgroundColor=none;strokeWidth=1;fontFamily=Verdana;fontSize=12" parent="1" vertex="1">
          <mxGeometry x="553" y="124" width="383" height="220" as="geometry" />
        </mxCell>
        <mxCell id="39150e848f15840c-3" value="Mongo Atlas" style="verticalAlign=top;align=left;spacingTop=8;spacingLeft=2;spacingRight=12;shape=cube;size=10;direction=south;fontStyle=4;html=1;rounded=0;shadow=0;comic=0;labelBackgroundColor=none;strokeWidth=1;fontFamily=Verdana;fontSize=12" parent="1" vertex="1">
          <mxGeometry x="115" y="424" width="260" height="150" as="geometry" />
        </mxCell>
        <mxCell id="39150e848f15840c-4" value="«artifact»&lt;br&gt;&lt;b&gt;BackEnd Express&lt;/b&gt;" style="html=1;rounded=0;shadow=0;comic=0;labelBackgroundColor=none;strokeWidth=1;fontFamily=Verdana;fontSize=12;align=center;" parent="1" vertex="1">
          <mxGeometry x="160" y="154" width="180" height="50" as="geometry" />
        </mxCell>
        <mxCell id="39150e848f15840c-5" value="&lt;div&gt;&lt;span&gt;«Component»&lt;/span&gt;&lt;/div&gt;&lt;span&gt;&lt;div&gt;&lt;b&gt;Mongoose ODM&lt;/b&gt;&lt;/div&gt;&lt;/span&gt;" style="shape=component;align=center;spacingLeft=36;rounded=0;shadow=0;comic=0;labelBackgroundColor=none;strokeWidth=1;fontFamily=Verdana;fontSize=12;html=1;" parent="1" vertex="1">
          <mxGeometry x="172.5" y="254" width="155" height="60" as="geometry" />
        </mxCell>
        <mxCell id="0Xtkwrc-i8zNQiLOmYta-1" value="«artifact»&lt;br&gt;&lt;b&gt;MongoDB Equipo2&lt;/b&gt;" style="html=1;rounded=0;shadow=0;comic=0;labelBackgroundColor=none;strokeWidth=1;fontFamily=Verdana;fontSize=12;align=center;" vertex="1" parent="1">
          <mxGeometry x="155" y="474" width="180" height="50" as="geometry" />
        </mxCell>
        <mxCell id="0Xtkwrc-i8zNQiLOmYta-19" value="" style="rounded=0;orthogonalLoop=1;jettySize=auto;html=1;endArrow=none;endFill=0;sketch=0;sourcePerimeterSpacing=0;targetPerimeterSpacing=0;exitX=0.5;exitY=1;exitDx=0;exitDy=0;" edge="1" parent="1" source="39150e848f15840c-4">
          <mxGeometry relative="1" as="geometry">
            <mxPoint x="252" y="206" as="sourcePoint" />
            <mxPoint x="250" y="224" as="targetPoint" />
          </mxGeometry>
        </mxCell>
        <mxCell id="0Xtkwrc-i8zNQiLOmYta-20" value="" style="rounded=0;orthogonalLoop=1;jettySize=auto;html=1;endArrow=halfCircle;endFill=0;entryX=0.5;entryY=0.5;endSize=6;strokeWidth=1;sketch=0;exitX=0.5;exitY=0;exitDx=0;exitDy=0;" edge="1" target="0Xtkwrc-i8zNQiLOmYta-21" parent="1" source="39150e848f15840c-5">
          <mxGeometry relative="1" as="geometry">
            <mxPoint x="415" y="269" as="sourcePoint" />
          </mxGeometry>
        </mxCell>
        <mxCell id="0Xtkwrc-i8zNQiLOmYta-21" value="" style="ellipse;whiteSpace=wrap;html=1;align=center;aspect=fixed;resizable=0;points=[];outlineConnect=0;sketch=0;" vertex="1" parent="1">
          <mxGeometry x="245" y="219" width="10" height="10" as="geometry" />
        </mxCell>
        <mxCell id="0Xtkwrc-i8zNQiLOmYta-23" value="&lt;div style=&quot;text-align: center&quot;&gt;&lt;span&gt;«Component»&lt;/span&gt;&lt;/div&gt;&lt;span&gt;&lt;div style=&quot;text-align: center&quot;&gt;&lt;b&gt;Browser&lt;/b&gt;&lt;/div&gt;&lt;/span&gt;" style="shape=component;align=left;spacingLeft=36;rounded=0;shadow=0;comic=0;labelBackgroundColor=none;strokeWidth=1;fontFamily=Verdana;fontSize=12;html=1;" vertex="1" parent="1">
          <mxGeometry x="576" y="208" width="155" height="60" as="geometry" />
        </mxCell>
        <mxCell id="0Xtkwrc-i8zNQiLOmYta-24" value="«FrontEnd»&lt;br&gt;&lt;b&gt;ReactJs&lt;/b&gt;" style="html=1;rounded=0;shadow=0;comic=0;labelBackgroundColor=none;strokeWidth=1;fontFamily=Verdana;fontSize=12;align=center;" vertex="1" parent="1">
          <mxGeometry x="756" y="210" width="160" height="56" as="geometry" />
        </mxCell>
        <mxCell id="0Xtkwrc-i8zNQiLOmYta-27" value="" style="endArrow=none;html=1;edgeStyle=orthogonalEdgeStyle;rounded=0;entryX=0;entryY=0;entryDx=115;entryDy=383;entryPerimeter=0;exitX=0.523;exitY=0;exitDx=0;exitDy=0;exitPerimeter=0;" edge="1" parent="1" source="39150e848f15840c-1" target="39150e848f15840c-2">
          <mxGeometry relative="1" as="geometry">
            <mxPoint x="415" y="244" as="sourcePoint" />
            <mxPoint x="575" y="244" as="targetPoint" />
          </mxGeometry>
        </mxCell>
        <mxCell id="0Xtkwrc-i8zNQiLOmYta-30" value="" style="endArrow=none;html=1;edgeStyle=orthogonalEdgeStyle;rounded=0;exitX=0;exitY=0;exitDx=220;exitDy=170;exitPerimeter=0;entryX=0.001;entryY=0.497;entryDx=0;entryDy=0;entryPerimeter=0;" edge="1" parent="1" source="39150e848f15840c-1" target="39150e848f15840c-3">
          <mxGeometry relative="1" as="geometry">
            <mxPoint x="422" y="394" as="sourcePoint" />
            <mxPoint x="247" y="424" as="targetPoint" />
          </mxGeometry>
        </mxCell>
        <mxCell id="0Xtkwrc-i8zNQiLOmYta-31" value="&lt;b&gt;&lt;font style=&quot;font-size: 17px&quot;&gt;Diagrama de despliegue plataforma casa de subastas&lt;br&gt;Grupo 11 Equipo 2&lt;br&gt;&lt;/font&gt;&lt;/b&gt;" style="text;html=1;resizable=0;autosize=1;align=center;verticalAlign=middle;points=[];fillColor=none;strokeColor=none;rounded=0;" vertex="1" parent="1">
          <mxGeometry x="325" y="30" width="450" height="40" as="geometry" />
        </mxCell>
      </root>
    </mxGraphModel>
  </diagram>
</mxfile>
